<?xml version="1.0" encoding="utf-8" ?><svg xmlns="http://www.w3.org/2000/svg" xmlns:xlink="http://www.w3.org/1999/xlink" width="1024" height="1024" viewBox="0 0 1024 1024"><path fill="#FEBE36" d="M552.939 212.283C559.563 210.147 616.965 210.618 626.388 211.267C628.97 211.445 632.343 211.628 634.649 212.83C637.774 214.46 639.186 217.4 640.139 220.642L640.26 221.065C637.188 233.651 626.584 252.126 620.653 264.372L581.607 344.587C575.642 356.799 568.914 368.98 563.498 381.425C580.476 381.633 597.47 381.462 614.45 381.435C622.266 381.423 630.72 380.787 638.475 381.588C640.801 381.828 643.057 382.244 645.006 383.584C645.88 385.485 646.188 387.235 645.389 389.243C643.625 393.679 631.964 406.388 628.28 410.886L592.257 454.9L497.643 569.414C465.254 608.751 432.959 648.358 399.448 686.742C397.512 688.959 394.382 692.787 391.475 693.522C390.973 693.649 390.672 693.592 390.192 693.552C389.15 692.585 389.208 692.547 389.034 691.124C389.539 689.839 390.062 688.626 390.715 687.41C392.161 683.046 394.319 678.644 396.271 674.49C398.562 667.342 402.069 660.298 405.068 653.407L420.241 618.311L479.738 482.686C480.919 480.242 481.929 477.673 483.008 475.179C472.182 474.672 461.232 474.981 450.393 474.977L391.782 475.032C402.608 457.59 412.771 439.648 423.207 421.966L465.266 350.991C483.595 318.801 502.256 286.802 521.247 254.999C521.959 253.595 522.777 252.366 523.688 251.084C523.841 250.73 523.998 250.377 524.178 250.036C528.707 241.465 538.695 222.928 545.184 216.729C547.494 214.522 549.879 213.161 552.939 212.283Z"/><path fill="#FFB11B" d="M552.939 212.283C559.563 210.147 616.965 210.618 626.388 211.267C628.97 211.445 632.343 211.628 634.649 212.83C637.774 214.46 639.186 217.4 640.139 220.642L640.26 221.065C637.188 233.651 626.584 252.126 620.653 264.372L581.607 344.587C575.642 356.799 568.914 368.98 563.498 381.425C580.476 381.633 597.47 381.462 614.45 381.435C622.266 381.423 630.72 380.787 638.475 381.588C640.801 381.828 643.057 382.244 645.006 383.584C645.88 385.485 646.188 387.235 645.389 389.243C643.625 393.679 631.964 406.388 628.28 410.886L592.257 454.9L497.643 569.414C465.254 608.751 432.959 648.358 399.448 686.742C397.512 688.959 394.382 692.787 391.475 693.522C390.973 693.649 390.672 693.592 390.192 693.552C389.15 692.585 389.208 692.547 389.034 691.124C389.539 689.839 390.062 688.626 390.715 687.41C390.62 688.436 390.694 688.165 390.5 688.921C390.371 689.426 390.152 690.01 390.12 690.529C390.049 691.665 390.126 691.906 390.76 692.837C392.106 691.836 392.617 689.802 394.146 688.738C404.111 681.8 642.684 391.164 643.587 387.987C643.831 387.128 643.615 385.711 643.03 385.027C642.054 383.884 640.557 383.49 639.115 383.316C633.265 382.608 626.497 383.426 620.501 383.4C600.916 383.314 581.067 384.052 561.523 382.934C561.802 378.411 572.947 357.861 575.529 352.547L616.193 269.044C623.012 255.015 631.192 240.379 636.734 225.874C637.519 223.82 638.086 221.761 637.765 219.548C637.473 217.527 636.295 216.258 634.665 215.148C633.238 214.177 631.74 213.675 630.034 213.479C617.716 212.065 600.895 213.029 588.187 213.023C579.161 213.019 562.209 211.973 553.842 213.647C553.048 213.704 552.429 213.719 551.693 214.052C551.53 214.125 551.385 214.246 551.211 214.282C550.901 214.347 550.579 214.328 550.263 214.351L550.592 214.413C551.845 213.677 552.229 213.525 552.939 212.283Z"/><path fill="#FEBE36" d="M616.519 329.712L703.992 329.752C718.096 329.733 741.893 328.251 754.975 331.259C765.352 333.644 775.866 339.364 783.336 346.966C790.809 354.572 797.002 365.035 799.071 375.574C801.266 386.755 800.417 399.175 800.424 410.541L800.434 460.077C800.43 515.469 801.196 570.966 800.377 626.346C800.104 644.761 795.644 659.525 782.159 672.657C776.902 677.777 769.526 683.316 762.305 685.155C757.969 687.584 751.691 688.499 746.763 688.819C734.196 689.635 721.318 689.099 708.716 689.098L639.258 689.078L424.051 689.073C425.955 686.821 427.794 684.308 430.088 682.446C434.535 675.893 440.867 669.37 446.258 663.52C447.009 662.2 448.163 661.176 449.209 660.081L639.641 660.164L705.136 660.191C718.323 660.194 731.754 660.697 744.903 659.742C751.675 658.296 757.839 655.762 762.899 650.894C769.771 644.285 772.31 635.421 772.452 626.132C773.273 572.702 772.478 519.132 772.492 465.685L772.51 415.409C772.509 406.018 773.176 395.87 771.781 386.58C770.718 379.505 767.601 372.865 762.54 367.766C757.792 362.983 751.984 359.728 745.333 358.522C739.905 357.537 733.975 357.94 728.472 357.949L702.09 357.991L602.105 357.986L604.289 353.768C607.402 347.62 610.596 341.514 613.871 335.451C614.687 333.505 615.44 331.531 616.519 329.712Z"/><path fill="#FFB11B" d="M602.105 357.986L604.289 353.768L604.788 355.054C611.405 357.052 623.657 355.939 630.919 355.964L701.257 355.972C713.074 355.979 740.203 354.572 749.993 357.703C758.571 360.485 765.714 366.523 769.886 374.518C772.546 379.511 773.645 385.137 774.024 390.742C775.239 408.704 774.417 427.095 774.416 445.112L774.442 541.802L774.375 597.483C774.405 607.022 775.845 626.586 773.5 635.071C772.572 638.428 770.662 641.594 769.475 644.887C767.306 650.902 760.423 656.128 754.753 658.683C752.965 659.488 750.973 660.25 749.019 660.404C747.636 660.246 746.272 659.987 744.903 659.742C751.675 658.296 757.839 655.762 762.899 650.894C769.771 644.285 772.31 635.421 772.452 626.132C773.273 572.702 772.478 519.132 772.492 465.685L772.51 415.409C772.509 406.018 773.176 395.87 771.781 386.58C770.718 379.505 767.601 372.865 762.54 367.766C757.792 362.983 751.984 359.728 745.333 358.522C739.905 357.537 733.975 357.94 728.472 357.949L702.09 357.991L602.105 357.986Z"/><path fill="#FFB11B" d="M616.519 329.712L703.992 329.752C718.096 329.733 741.893 328.251 754.975 331.259C765.352 333.644 775.866 339.364 783.336 346.966C790.809 354.572 797.002 365.035 799.071 375.574C801.266 386.755 800.417 399.175 800.424 410.541L800.434 460.077C800.43 515.469 801.196 570.966 800.377 626.346C800.104 644.761 795.644 659.525 782.159 672.657C776.902 677.777 769.526 683.316 762.305 685.155C765.223 682.496 769.524 681.11 772.888 678.974C776.077 676.95 778.468 674.19 780.952 671.394C789.051 662.277 794.514 653.481 797.225 641.485C799.983 629.279 798.608 605.217 798.604 591.661L798.563 499.395L798.591 421.725C798.581 408.028 799.482 393.683 798.024 380.092C797.16 372.03 793.803 364.363 789.451 357.591C781.943 345.971 770.51 337.435 757.235 333.538C744.661 329.859 726.756 331.619 713.463 331.581L651.589 331.534C644.683 331.537 633.069 332.618 626.691 331.232C631.53 330.186 644.878 331.001 650.457 330.999C658.33 330.998 745.277 331.412 746.225 330.651C742.299 330.075 737.816 330.479 733.835 330.481L708.097 330.484L616.977 330.508C616.158 332.288 615.645 334.58 613.871 335.451C614.687 333.505 615.44 331.531 616.519 329.712Z"/><path fill="#FFB11B" d="M449.209 660.081L639.641 660.164L705.136 660.191C718.323 660.194 731.754 660.697 744.903 659.742C746.272 659.987 747.636 660.246 749.019 660.404C735.994 663.436 721.238 662.065 707.866 662.058L650.758 662.019L523.069 662.033C498.601 662.123 474.133 662.058 449.666 661.839C446.775 664.766 444.252 667.94 441.666 671.133L441.463 670.848C443.017 668.27 445.573 666.571 446.258 663.52C447.009 662.2 448.163 661.176 449.209 660.081Z"/><path fill="#FEBE36" d="M261.896 331.776C272.603 328.253 294.737 329.745 306.609 329.746L356.197 329.763C387.801 329.766 419.579 329.004 451.16 329.903C446.152 339.084 441.28 348.34 436.548 357.667C421.819 358.431 406.907 357.976 392.153 357.981L316.502 357.984C304.856 357.976 280.102 356.588 270.021 359.262C261.369 362.099 254.013 367.859 249.796 376.019C247.709 380.057 246.424 385.368 246.134 389.908C245.332 402.413 245.951 415.281 245.953 427.828L245.965 498.866L245.95 583.044C245.936 597.889 245.359 612.974 246.004 627.784C246.163 631.429 246.668 634.943 247.828 638.411C250.562 646.582 256.532 653.27 264.341 656.912C267.785 658.56 271.37 659.449 275.158 659.845C284.624 660.835 294.735 660.174 304.267 660.159L352.15 660.119C361.315 660.115 370.598 659.817 379.746 660.275C374.886 669.826 370.312 679.744 365.05 689.062L303.261 689.114C292.46 689.12 281.127 689.786 270.389 688.845C265.885 688.45 261.188 687.707 257 685.944C249.458 683.461 242.549 679.361 236.755 673.931C226.815 664.734 219.125 650.809 218.641 637.074C217.024 628.327 218.025 618.153 218.034 609.22L218.032 557.09L218.046 443.287C218.047 424.789 217.456 406.104 218.019 387.626C218.142 383.604 218.573 379.522 219.434 375.59C221.784 364.852 229.328 349.825 238.906 343.781C244.284 338.174 254.288 333.192 261.896 331.776Z"/><path fill="#FFB11B" d="M270.442 357.222L270.021 359.262C261.369 362.099 254.013 367.859 249.796 376.019C247.709 380.057 246.424 385.368 246.134 389.908C245.332 402.413 245.951 415.281 245.953 427.828L245.965 498.866L245.95 583.044C245.936 597.889 245.359 612.974 246.004 627.784C246.163 631.429 246.668 634.943 247.828 638.411C250.562 646.582 256.532 653.27 264.341 656.912C267.785 658.56 271.37 659.449 275.158 659.845C284.624 660.835 294.735 660.174 304.267 660.159L352.15 660.119C361.315 660.115 370.598 659.817 379.746 660.275C374.886 669.826 370.312 679.744 365.05 689.062L303.261 689.114C292.46 689.12 281.127 689.786 270.389 688.845C265.885 688.45 261.188 687.707 257 685.944C256.544 685.205 256.799 685.53 256.06 684.804C255.869 684.616 255.673 684.432 255.48 684.246L255.993 683.772C273.444 689.679 298.338 687.672 316.923 687.558L363.741 687.525C368.091 679.07 372.122 670.451 376.542 662.029C354.039 661.751 331.503 662.014 308.997 662.011C297.571 662.009 285.611 662.68 274.259 661.431C270.938 661.065 267.815 660.238 264.75 658.899C256.942 655.487 250.166 649.454 247.061 641.409C245.418 637.073 244.456 632.509 244.207 627.878C243.489 615.242 244.122 602.252 244.113 589.567L244.089 511.358L244.066 433.081C244.059 419.423 243.447 405.488 244.187 391.872C244.466 386.735 245.306 381.505 247.401 376.788C252.009 366.413 260.153 361.143 270.442 357.222Z"/><path fill="#FFB11B" d="M261.896 331.776C272.603 328.253 294.737 329.745 306.609 329.746L356.197 329.763C387.801 329.766 419.579 329.004 451.16 329.903C446.152 339.084 441.28 348.34 436.548 357.667C421.819 358.431 406.907 357.976 392.153 357.981L316.502 357.984C304.856 357.976 280.102 356.588 270.021 359.262L270.442 357.222C279.797 354.586 312.192 356.164 323.768 356.2C360.857 356.316 398.188 356.82 435.257 355.822C439.292 347.818 443.239 339.695 447.693 331.917L329.961 331.644L295.316 331.612C284.21 331.607 271.67 330.527 260.944 333.738L259.781 333.226L261.51 332.666L261.896 331.776Z"/><path fill="#FFB11B" d="M218.641 637.074L219.309 637.36L219.421 638.256C220.049 643.095 221.296 648.305 223.094 652.845L223.786 651.186C228.561 662.476 235.793 672.921 246.706 679.15C249.455 680.718 253.634 681.831 255.993 683.772L255.48 684.246C255.673 684.432 255.869 684.616 256.06 684.804C256.799 685.53 256.544 685.205 257 685.944C249.458 683.461 242.549 679.361 236.755 673.931C226.815 664.734 219.125 650.809 218.641 637.074Z"/><path fill="#FEBE36" d="M525.453 571.2C526.375 570.383 527.371 569.461 528.628 569.241C532.064 568.641 536.295 569.05 539.813 569.051L562.841 569.064L603.102 569.084C611.418 569.078 619.824 568.807 628.124 569.308C634.043 569.665 639.903 571.217 643.944 575.925C645.985 578.303 647.042 581.406 647.566 584.452C648.422 589.424 648.454 612.68 647.82 618.086C647.212 623.274 645.335 627.971 640.982 631.106C637.946 633.292 634.154 634.401 630.466 634.765C624.058 635.397 617.343 635.05 610.902 635.043L577.157 635.002L471.498 634.952C475.678 628.868 481.062 622.87 486.15 617.511C489.068 613.045 498.554 601.774 502.545 598.426C506.645 592.883 511.538 587.423 516.317 582.451C518.579 578.533 522.667 574.886 525.453 571.2Z"/><path fill="#FFB11B" d="M525.453 571.2C526.375 570.383 527.371 569.461 528.628 569.241C532.064 568.641 536.295 569.05 539.813 569.051L562.841 569.064L603.102 569.084C611.418 569.078 619.824 568.807 628.124 569.308C634.043 569.665 639.903 571.217 643.944 575.925C645.985 578.303 647.042 581.406 647.566 584.452C648.422 589.424 648.454 612.68 647.82 618.086C647.212 623.274 645.335 627.971 640.982 631.106C637.946 633.292 634.154 634.401 630.466 634.765C624.058 635.397 617.343 635.05 610.902 635.043L577.157 635.002L471.498 634.952C475.678 628.868 481.062 622.87 486.15 617.511C485.767 621.506 481.49 625.223 479.04 628.237C478.13 629.357 477.01 630.809 477.173 632.282C477.442 632.348 477.71 632.418 477.98 632.478C484.178 633.858 491.905 633.109 498.284 633.116L533.494 633.208L596.181 633.234C607.374 633.231 619.039 633.858 630.168 632.938C633.489 632.663 636.512 631.755 639.327 629.946C642.811 627.707 644.71 624.37 645.561 620.359C646.611 615.405 646.609 589.467 645.715 584.237C645.325 581.951 644.551 579.624 643.184 577.729C641.334 575.165 637.826 572.807 634.766 572.006C627.708 570.16 610.686 571.224 602.78 571.225L543.317 571.15C538.008 571.134 531.356 572.263 526.218 571.349C525.963 571.303 525.708 571.25 525.453 571.2Z"/><path fill="#FEBE36" d="M292.599 389.92C297.504 388.971 320.689 388.982 326.078 389.67C329.235 390.072 332.475 390.95 335.117 392.79C339.233 395.656 341.51 400.89 342.227 405.709C343.248 412.569 343.321 435.14 341.996 441.806C341.436 444.756 340.243 447.55 338.5 449.995C335.45 454.186 330.628 455.899 325.653 456.562C318.118 457.566 300.048 457.712 292.657 456.227C289.727 455.638 287.021 454.575 284.64 452.745C280.291 449.401 278.729 444.407 278.195 439.127C277.663 433.861 277.116 407.866 278.795 404.052C279.013 401.764 279.943 399.442 281.157 397.504C283.791 393.302 287.843 390.959 292.599 389.92Z"/><path fill="#FFB11B" d="M292.599 389.92C297.504 388.971 320.689 388.982 326.078 389.67C329.235 390.072 332.475 390.95 335.117 392.79C339.233 395.656 341.51 400.89 342.227 405.709C343.248 412.569 343.321 435.14 341.996 441.806C341.436 444.756 340.243 447.55 338.5 449.995C335.45 454.186 330.628 455.899 325.653 456.562C318.118 457.566 300.048 457.712 292.657 456.227C289.727 455.638 287.021 454.575 284.64 452.745C280.291 449.401 278.729 444.407 278.195 439.127C277.663 433.861 277.116 407.866 278.795 404.052L280.153 402.322C280.126 403.11 280.035 403.787 279.913 404.568C279.734 405.706 279.812 406.544 279.929 407.677C280.248 417.346 277.317 441.847 283.269 448.722C287.408 453.502 294.221 454.696 300.219 455.114C309.505 455.762 328.331 457.036 335.345 450.524C339.098 447.039 340.401 440.882 340.583 435.962C340.899 427.427 341.758 409.794 339.643 401.958C339.042 399.79 337.898 397.809 336.32 396.205C334.469 394.304 332.139 392.938 329.577 392.25C321.705 390.166 302.414 391.406 293.512 391.446C292.312 391.306 291.443 391.452 290.27 391.638C291.02 391.029 291.813 390.481 292.599 389.92Z"/><path fill="#FFB11B" d="M692.218 389.605C700.785 389.1 725.046 387.951 731.86 392.566C735.598 395.046 738.194 398.913 739.073 403.311C740.056 408.33 740.142 435.72 739.259 441.04C738.767 444.008 737.807 446.864 736.09 449.356C733.168 453.596 728.947 455.463 724.031 456.395C714.822 457.628 691.841 458.481 684.013 453.831C679.925 451.403 677.481 447.84 676.426 443.237C674.934 436.725 674.993 411.676 676.2 404.712C676.678 401.953 677.577 399.305 679.155 396.975C682.303 392.33 686.913 390.52 692.218 389.605Z"/><path fill="#FEBE36" d="M691.87 391.668C699.487 391.216 723.712 390.372 729.822 393.369C733.293 395.071 735.732 398.763 736.859 402.37C738.452 407.475 738.182 431.917 737.575 437.895C737.267 440.93 736.623 444.616 735.161 447.288C732.958 451.313 728.551 453.054 724.376 454.206C714.379 455.821 693.353 457.244 684.891 451.983C681.447 449.864 679.007 446.443 678.126 442.496C676.917 437.241 676.996 411.664 677.874 405.892C678.304 403.064 679.056 400.344 680.688 397.957C683.54 393.784 687.184 392.607 691.87 391.668Z"/><path fill="#FEBE36" d="M294.738 569.579C301.469 568.21 320.345 568.468 327.066 569.708C329.773 570.207 332.429 571.111 334.749 572.616C339 575.374 341.263 579.649 342.159 584.544C343.223 590.351 343.114 614.306 342.035 620.292C341.533 623.071 340.57 625.821 338.893 628.117C335.743 632.431 330.674 634.194 325.566 634.875C319.658 635.662 298.546 635.623 293.016 634.63C289.862 634.063 286.719 633.042 284.21 630.977C279.892 627.423 278.401 620.967 278.066 615.6C277.546 607.292 276.652 584.88 280.601 578.113C281.169 576.832 281.854 575.83 282.811 574.798C285.804 571.573 290.395 569.762 294.738 569.579Z"/><path fill="#FFB11B" d="M294.738 569.579C301.469 568.21 320.345 568.468 327.066 569.708C329.773 570.207 332.429 571.111 334.749 572.616C339 575.374 341.263 579.649 342.159 584.544C343.223 590.351 343.114 614.306 342.035 620.292C341.533 623.071 340.57 625.821 338.893 628.117C335.743 632.431 330.674 634.194 325.566 634.875C319.658 635.662 298.546 635.623 293.016 634.63C289.862 634.063 286.719 633.042 284.21 630.977C279.892 627.423 278.401 620.967 278.066 615.6C277.546 607.292 276.652 584.88 280.601 578.113C280.804 578.407 281.116 578.65 281.211 578.994C281.498 580.04 280.146 587.357 280.046 589.161C279.581 597.511 278.904 611.485 280.387 619.371C281.164 623.502 283.177 628.038 286.818 630.42C293.083 634.519 320.717 634.412 328.367 632.596C332.512 631.612 335.38 629.909 337.626 626.205C339.005 623.932 339.822 621.362 340.234 618.747C341.285 612.061 341.395 587.954 339.582 581.513C338.091 576.219 334.155 574.636 329.669 572.215L330.786 571.625C321.976 567.264 303.867 572.269 295.582 569.848C295.299 569.765 295.019 569.669 294.738 569.579Z"/><path fill="#FEBE36" d="M690.318 570.011C698.946 567.923 723.51 567.945 731.111 572.445C735.381 574.974 738.071 578.936 739.133 583.755C740.184 588.532 740.095 613.346 739.481 618.301C739.088 621.47 738.352 625.197 736.503 627.843C733.636 631.945 728.086 634.152 723.302 634.803C716.26 635.761 697.978 635.926 691.104 634.661C687.812 634.055 684.558 632.885 681.849 630.88C677.971 628.01 676.462 623.149 675.869 618.529C675.02 611.909 675.026 590.406 676.26 584.052C676.813 581.205 677.87 578.6 679.637 576.287C680.303 575.414 681.002 574.729 681.851 574.041C683.9 571.763 687.328 570.414 690.318 570.011Z"/><path fill="#FFB11B" d="M690.318 570.011C698.946 567.923 723.51 567.945 731.111 572.445C735.381 574.974 738.071 578.936 739.133 583.755C740.184 588.532 740.095 613.346 739.481 618.301C739.088 621.47 738.352 625.197 736.503 627.843C733.636 631.945 728.086 634.152 723.302 634.803C716.26 635.761 697.978 635.926 691.104 634.661C687.812 634.055 684.558 632.885 681.849 630.88C677.971 628.01 676.462 623.149 675.869 618.529C675.02 611.909 675.026 590.406 676.26 584.052C676.813 581.205 677.87 578.6 679.637 576.287C680.303 575.414 681.002 574.729 681.851 574.041C682.046 576.615 678.228 581.681 677.784 585.166C676.791 592.952 676.516 611.931 677.921 619.519C678.472 622.495 679.639 625.675 681.558 628.049C684.306 631.447 690.395 632.563 694.572 633.069C703.74 634.179 725.141 635.071 732.407 629.07C736.032 626.077 737.155 621.948 737.606 617.426C738.227 611.208 738.592 590.173 737.28 584.153C736.694 581.465 735.548 579.029 733.743 576.941C731.293 574.105 727.573 571.664 723.944 570.695C716.307 568.655 700.085 570.797 691.136 570.084L690.318 570.011Z"/><path fill="#FEBE36" d="M333.054 482.146C335.227 480.566 337.48 479.785 340.125 479.327C345.166 478.453 367.585 478.487 372.784 479.259C377.638 479.98 382.142 481.977 385.149 485.988C386.859 488.27 387.866 490.965 388.338 493.762C389.232 499.069 389.266 523.881 388.292 529.634C387.504 534.288 385.411 538.583 381.495 541.365C377.503 544.201 372.042 545.128 367.212 544.943C357.886 545.074 346.756 546.324 337.743 543.794C332.949 542.448 329.897 540.125 327.512 535.71C326.198 533.278 325.48 530.582 325.16 527.846C324.396 521.327 324.176 497.622 325.901 491.838C327.151 487.648 329.187 484.307 333.054 482.146Z"/><path fill="#FFB11B" d="M333.054 482.146C335.227 480.566 337.48 479.785 340.125 479.327C345.166 478.453 367.585 478.487 372.784 479.259C377.638 479.98 382.142 481.977 385.149 485.988C386.859 488.27 387.866 490.965 388.338 493.762C389.232 499.069 389.266 523.881 388.292 529.634C387.504 534.288 385.411 538.583 381.495 541.365C377.503 544.201 372.042 545.128 367.212 544.943C369.629 543.307 373.628 544.736 375.33 543.164L374.156 542.696C378.734 540.769 382.199 539.539 384.57 534.804C385.758 532.432 386.327 529.836 386.646 527.219C387.346 521.46 387.511 495.682 385.81 490.98C384.357 486.962 381.216 483.911 377.285 482.307C369.918 479.301 350.851 480.156 342.642 481.132C340.179 481.425 335.037 483.08 333.054 482.146Z"/><path fill="#FFB11B" d="M645.418 479.12C655.228 478.593 676.197 477.304 684.201 482.084C688.094 484.408 690.645 487.951 691.648 492.362C692.999 498.305 692.904 523.447 691.846 529.627C691.377 532.367 690.465 534.979 688.911 537.297C686.066 541.539 681.876 543.392 677.013 544.376C667.977 545.535 646.302 546.673 638.48 542.194C633.905 539.575 631.063 535.103 629.871 530.041C628.376 523.697 628.413 502.173 629.439 495.478C629.92 492.343 630.819 489.241 632.578 486.569C635.611 481.961 640.213 480.105 645.418 479.12Z"/><path fill="#FEBE36" d="M650.872 480.747C660.149 480.693 676.989 478.878 684.814 484.364C687.656 486.357 689.311 490.835 689.91 494.101C691.144 500.819 691.153 522.517 689.738 529.167C689.111 532.115 687.941 535.035 686.135 537.463C682.796 541.949 676.276 542.479 671.123 543.255C661.467 543.316 645.857 545.13 637.711 539.277C635.025 537.347 632.41 533.421 631.88 530.145C631.107 525.367 631.37 520.222 631.315 515.389C631.224 507.445 629.533 492.674 634.964 486.11C638.751 481.535 645.402 481.195 650.872 480.747Z"/><path fill="#FEBE36" d="M381.854 570.778C388.924 567.728 411.065 568.714 419.234 569.25L401.714 608.792C398.8 615.413 396.249 622.707 392.61 628.926C391.3 631.166 389.783 633.722 387.233 634.685C384.427 635.744 381.119 634.99 378.517 633.719C374.75 631.88 372.332 628.709 371.123 624.73C369.244 618.547 369.024 586.831 371.544 581.532C371.676 580.892 371.919 580.257 372.171 579.655C373.92 575.495 377.719 572.357 381.854 570.778Z"/><path fill="#FFB11B" d="M381.854 570.778C388.924 567.728 411.065 568.714 419.234 569.25L401.714 608.792C398.8 615.413 396.249 622.707 392.61 628.926C391.3 631.166 389.783 633.722 387.233 634.685C384.427 635.744 381.119 634.99 378.517 633.719C374.75 631.88 372.332 628.709 371.123 624.73C369.244 618.547 369.024 586.831 371.544 581.532L371.96 581.656C372.475 582.767 369.973 616.653 373.141 624.479C374.441 627.69 377.088 631.46 380.418 632.787C382.188 633.492 384.242 633.271 385.964 632.535C388.248 631.559 389.871 629.565 391.108 627.478C394.958 620.985 397.605 613.019 400.648 606.089C405.768 594.429 411.382 582.911 416.024 571.052C408.533 571.059 401.042 571.104 393.551 571.187C390.186 571.251 385.141 572.26 381.956 571.483L381.854 570.778Z"/><path fill="#FEBE36" d="M596.505 483.187C597.877 482.285 598.789 481.648 600.49 481.539C601.568 481.959 602.047 482.012 602.571 483.141C603.533 485.219 603.344 521.259 602.89 525.759C602.568 528.951 601.905 532.069 600.376 534.923C598.057 539.252 594.237 541.942 589.548 543.209C587.353 543.813 585.075 544.062 582.801 543.946C569.961 544.452 556.792 544.229 543.941 543.828C550.469 536.123 557.366 528.688 563.957 521.021C571.871 511.815 579.544 502.356 587.756 493.414C590.352 489.853 593.631 486.547 596.505 483.187Z"/><path fill="#FFB11B" d="M596.505 483.187C597.877 482.285 598.789 481.648 600.49 481.539C601.568 481.959 602.047 482.012 602.571 483.141C603.533 485.219 603.344 521.259 602.89 525.759C602.568 528.951 601.905 532.069 600.376 534.923C598.057 539.252 594.237 541.942 589.548 543.209C587.353 543.813 585.075 544.062 582.801 543.946C583.764 543.311 584.114 543.234 585.246 543.042C587.046 542.738 588.614 542.436 590.328 541.79C593.953 540.423 597.641 538.746 599.201 534.921C601.632 528.956 602.563 490.366 600.219 484.482L599.235 484.12L596.505 483.187Z"/><path fill="#FFB11B" d="M385.31 389.637C394.452 389.178 403.729 389.512 412.886 389.533C405.555 407.11 396.881 424.303 389.002 441.659C388.135 443.597 387.302 445.638 386.254 447.484C385.249 449.25 383.844 450.42 381.843 450.876C380.001 451.296 377.566 450.569 375.999 449.607C372.963 447.743 371.338 444.139 370.614 440.777C369.336 434.836 369.44 410.866 370.389 404.984C370.861 402.063 371.861 399.169 373.53 396.71C376.376 392.517 380.455 390.549 385.31 389.637Z"/><path fill="#FEBE36" d="M383.754 391.494C392.286 391.18 401.123 391.229 409.643 391.708C403.25 407.656 395.197 423.105 387.996 438.711C386.57 442.261 384.668 447.913 380.645 449.296C379.776 449.594 379.102 449.596 378.271 449.269C376.014 448.38 374.545 445.407 373.676 443.309C370.328 435.227 370.644 407.018 374.292 398.743C376.073 394.704 379.885 393.029 383.754 391.494Z"/></svg>